<svg width="58" height="38" viewBox="0 0 58 38" fill="none" xmlns="http://www.w3.org/2000/svg">
<circle cx="1" cy="1" r="1" fill="#858585"/>
<circle cx="1" cy="7" r="1" fill="#858585"/>
<circle cx="1" cy="13" r="1" fill="#858585"/>
<circle cx="1" cy="19" r="1" fill="#858585"/>
<circle cx="1" cy="25" r="1" fill="#858585"/>
<circle cx="1" cy="31" r="1" fill="#858585"/>
<circle cx="1" cy="37" r="1" fill="#858585"/>
<circle cx="8" cy="1" r="1" fill="#858585"/>
<circle cx="8" cy="7" r="1" fill="#858585"/>
<circle cx="8" cy="13" r="1" fill="#858585"/>
<circle cx="8" cy="19" r="1" fill="#858585"/>
<circle cx="8" cy="25" r="1" fill="#858585"/>
<circle cx="8" cy="31" r="1" fill="#858585"/>
<circle cx="8" cy="37" r="1" fill="#858585"/>
<circle cx="15" cy="1" r="1" fill="#858585"/>
<circle cx="15" cy="7" r="1" fill="#858585"/>
<circle cx="15" cy="13" r="1" fill="#858585"/>
<circle cx="15" cy="19" r="1" fill="#858585"/>
<circle cx="15" cy="25" r="1" fill="#858585"/>
<circle cx="15" cy="31" r="1" fill="#858585"/>
<circle cx="15" cy="37" r="1" fill="#858585"/>
<circle cx="22" cy="1" r="1" fill="#858585"/>
<circle cx="22" cy="7" r="1" fill="#858585"/>
<circle cx="22" cy="13" r="1" fill="#858585"/>
<circle cx="22" cy="19" r="1" fill="#858585"/>
<circle cx="22" cy="25" r="1" fill="#858585"/>
<circle cx="22" cy="31" r="1" fill="#858585"/>
<circle cx="22" cy="37" r="1" fill="#858585"/>
<circle cx="29" cy="1" r="1" fill="#858585"/>
<circle cx="29" cy="7" r="1" fill="#858585"/>
<circle cx="29" cy="13" r="1" fill="#858585"/>
<circle cx="29" cy="19" r="1" fill="#858585"/>
<circle cx="29" cy="25" r="1" fill="#858585"/>
<circle cx="29" cy="31" r="1" fill="#858585"/>
<circle cx="29" cy="37" r="1" fill="#858585"/>
<circle cx="36" cy="1" r="1" fill="#858585"/>
<circle cx="36" cy="7" r="1" fill="#858585"/>
<circle cx="36" cy="13" r="1" fill="#858585"/>
<circle cx="36" cy="19" r="1" fill="#858585"/>
<circle cx="36" cy="25" r="1" fill="#858585"/>
<circle cx="36" cy="31" r="1" fill="#858585"/>
<circle cx="36" cy="37" r="1" fill="#858585"/>
<circle cx="43" cy="1" r="1" fill="#858585"/>
<circle cx="43" cy="7" r="1" fill="#858585"/>
<circle cx="43" cy="13" r="1" fill="#858585"/>
<circle cx="43" cy="19" r="1" fill="#858585"/>
<circle cx="43" cy="25" r="1" fill="#858585"/>
<circle cx="43" cy="31" r="1" fill="#858585"/>
<circle cx="43" cy="37" r="1" fill="#858585"/>
<circle cx="50" cy="1" r="1" fill="#858585"/>
<circle cx="50" cy="7" r="1" fill="#858585"/>
<circle cx="50" cy="13" r="1" fill="#858585"/>
<circle cx="50" cy="19" r="1" fill="#858585"/>
<circle cx="50" cy="25" r="1" fill="#858585"/>
<circle cx="50" cy="31" r="1" fill="#858585"/>
<circle cx="50" cy="37" r="1" fill="#858585"/>
<circle cx="57" cy="1" r="1" fill="#858585"/>
<circle cx="57" cy="7" r="1" fill="#858585"/>
<circle cx="57" cy="13" r="1" fill="#858585"/>
<circle cx="57" cy="19" r="1" fill="#858585"/>
<circle cx="57" cy="25" r="1" fill="#858585"/>
<circle cx="57" cy="31" r="1" fill="#858585"/>
<circle cx="57" cy="37" r="1" fill="#858585"/>
</svg>
