<svg width="98" height="30" viewBox="0 0 98 30" fill="none" xmlns="http://www.w3.org/2000/svg">
<path d="M1 9.5L11 1L21 9.5" stroke="#858585"/>
<path d="M1 19.5L11 11L21 19.5" stroke="#858585"/>
<path d="M1 29.5L11 21L21 29.5" stroke="#858585"/>
<path d="M20 9.5L30 1L40 9.5" stroke="#858585"/>
<path d="M20 19.5L30 11L40 19.5" stroke="#858585"/>
<path d="M20 29.5L30 21L40 29.5" stroke="#858585"/>
<path d="M39 9.5L49 1L59 9.5" stroke="#858585"/>
<path d="M39 19.5L49 11L59 19.5" stroke="#858585"/>
<path d="M39 29.5L49 21L59 29.5" stroke="#858585"/>
<path d="M58 9.5L68 1L78 9.5" stroke="#858585"/>
<path d="M58 19.5L68 11L78 19.5" stroke="#858585"/>
<path d="M58 29.5L68 21L78 29.5" stroke="#858585"/>
<path d="M77 9.5L87 1L97 9.5" stroke="#858585"/>
<path d="M77 19.5L87 11L97 19.5" stroke="#858585"/>
<path d="M77 29.5L87 21L97 29.5" stroke="#858585"/>
</svg>
